0
SECTION
2
HEADER
9
$INSUNITS
70
4
9
$ACADVER
1
AC1014
9
$HANDSEED
5
FFFF
0
ENDSEC
0
SECTION
2
TABLES
0
TABLE
2
VPORT
5
8
100
AcDbSymbolTable
0
ENDTAB
0
TABLE
2
LTYPE
5
5
100
AcDbSymbolTable
0
LTYPE
5
14
100
AcDbSymbolTableRecord
100
AcDbLinetypeTableRecord
2
BYBLOCK
70
0
0
LTYPE
5
15
100
AcDbSymbolTableRecord
100
AcDbLinetypeTableRecord
2
BYLAYER
70
0
0
ENDTAB
0
TABLE
2
LAYER
5
2
100
AcDbSymbolTable
70
2
0
LAYER
5
50
100
AcDbSymbolTableRecord
100
AcDbLayerTableRecord
2
0
70
0
6
CONTINUOUS
0
ENDTAB
0
TABLE
2
STYLE
5
3
100
AcDbSymbolTable
70
1
0
STYLE
5
11
100
AcDbSymbolTableRecord
100
AcDbTextStyleTableRecord
2
STANDARD
70
0
0
ENDTAB
0
TABLE
2
VIEW
5
6
100
AcDbSymbolTable
70
0
0
ENDTAB
0
TABLE
2
UCS
5
7
100
AcDbSymbolTable
70
0
0
ENDTAB
0
TABLE
2
APPID
5
9
100
AcDbSymbolTable
70
2
0
APPID
5
12
100
AcDbSymbolTableRecord
100
AcDbRegAppTableRecord
2
ACAD
70
0
0
ENDTAB
0
TABLE
2
DIMSTYLE
5
A
100
AcDbSymbolTable
70
1
0
ENDTAB
0
TABLE
2
BLOCK_RECORD
5
1
100
AcDbSymbolTable
70
1
0
BLOCK_RECORD
5
1F
100
AcDbSymbolTableRecord
100
AcDbBlockTableRecord
2
*MODEL_SPACE
0
BLOCK_RECORD
5
1B
100
AcDbSymbolTableRecord
100
AcDbBlockTableRecord
2
*PAPER_SPACE
0
ENDTAB
0
ENDSEC
0
SECTION
2
BLOCKS
0
BLOCK
5
20
100
AcDbEntity
100
AcDbBlockBegin
2
*MODEL_SPACE
0
ENDBLK
5
21
100
AcDbEntity
100
AcDbBlockEnd
0
BLOCK
5
1C
100
AcDbEntity
100
AcDbBlockBegin
2
*PAPER_SPACE
0
ENDBLK
5
1D
100
AcDbEntity
100
AcDbBlockEnd
0
ENDSEC
0
SECTION
2
ENTITIES
0
CIRCLE
5
100
100
AcDbEntity
8
0
100
AcDbCircle
10
-139.07197093336356
20
146.80881641697255
30
0
40
1.0999999999999943
210
0
220
-0
230
1
0
CIRCLE
5
101
100
AcDbEntity
8
0
100
AcDbCircle
10
-249.36185226064362
20
46.525135818980587
30
0
40
1.0999999999999943
210
0
220
-0
230
1
0
CIRCLE
5
102
100
AcDbEntity
8
0
100
AcDbCircle
10
3.4742126304831715
20
46.524966821216715
30
0
40
1.1000000000000001
210
0
220
-0
230
1
0
CIRCLE
5
103
100
AcDbEntity
8
0
100
AcDbCircle
10
-297.46213228648719
20
46.525050314825179
30
0
40
1.0999999999999943
210
0
220
-0
230
1
0
CIRCLE
5
104
100
AcDbEntity
8
0
100
AcDbCircle
10
3.4742126304831693
20
129.67494721720615
30
0
40
1.0999999999999974
210
0
220
-0
230
1
0
CIRCLE
5
105
100
AcDbEntity
8
0
100
AcDbCircle
10
-176.91423780580112
20
55.928764592879752
30
0
40
1.0999999999999943
210
0
220
-0
230
1
0
CIRCLE
5
106
100
AcDbEntity
8
0
100
AcDbCircle
10
-249.3618529626176
20
129.67502289388514
30
0
40
1.0999999999999943
210
0
220
-0
230
1
0
CIRCLE
5
107
100
AcDbEntity
8
0
100
AcDbCircle
10
-84.813925124515904
20
52.43912948944994
30
0
40
1.0999999999999943
210
0
220
-0
230
1
0
CIRCLE
5
108
100
AcDbEntity
8
0
100
AcDbCircle
10
-314.74936036951362
20
129.67502567301818
30
0
40
1.0999999999999943
210
0
220
-0
230
1
0
CIRCLE
5
109
100
AcDbEntity
8
0
100
AcDbCircle
10
-297.46213292950245
20
129.67502567301824
30
0
40
1.0999999999999943
210
0
220
-0
230
1
0
CIRCLE
5
110
100
AcDbEntity
8
0
100
AcDbCircle
10
-14.288288637029858
20
46.524966821216715
30
0
40
1.0999999999999985
210
0
220
-0
230
1
0
CIRCLE
5
111
100
AcDbEntity
8
0
100
AcDbCircle
10
-189.54360616664442
20
138.25200032500783
30
0
40
1.0999999999999943
210
0
220
-0
230
1
0
CIRCLE
5
112
100
AcDbEntity
8
0
100
AcDbCircle
10
-314.74936036951362
20
46.525080006934701
30
0
40
1.0999999999999943
210
0
220
-0
230
1
0
CIRCLE
5
113
100
AcDbEntity
8
0
100
AcDbCircle
10
-86.10094029130947
20
137.72030768233896
30
0
40
1.1000000000000119
210
0
220
-0
230
1
0
CIRCLE
5
114
100
AcDbEntity
8
0
100
AcDbCircle
10
-145.55721130090495
20
60.393831882637691
30
0
40
1.0999999999999943
210
0
220
-0
230
1
0
CIRCLE
5
115
100
AcDbEntity
8
0
100
AcDbCircle
10
-14.288457287906329
20
129.67494721720615
30
0
40
1.1000000000000032
210
0
220
-0
230
1
0
LWPOLYLINE
5
116
100
AcDbEntity
8
0
100
AcDbPolyline
90
24
70
1
43
0.0
10
-149.39201621867647
20
149.80881384669385
42
0.052407701328425309
10
-149.8078389897928
20
149.76510915671199
10
-230.00512028667148
20
132.71867267032297
42
-0.052407713841361524
10
-230.42094315761645
20
132.67496798034114
10
-315.74936042846724
20
132.67496798034119
42
0.41421356237311585
10
-317.74936042846718
20
130.67496798034114
10
-317.74936042846718
20
45.525100208058831
42
0.41421356237310025
10
-315.74936042846718
20
43.525100208058873
10
-221.05109459120143
20
43.525100208058838
42
0.052406401569312797
10
-220.63528196090289
20
43.568802721354913
10
-155.79823803127675
20
57.349969420387197
42
-0.052405985216200428
10
-155.38242872268003
20
57.39367193368048
10
-122.76299061862106
20
57.393726109704978
42
-0.052408048989325932
10
-122.34716505967896
20
57.350021554423741
10
-57.511451101796851
20
43.568804763342861
42
0.052407632636170841
10
-57.095628864556609
20
43.525100208058845
10
4.4742125715294989
20
43.525100208058838
42
0.41421356237309875
10
6.4742125715294989
20
45.525100208058859
10
6.4742125715294918
20
130.67496798034114
42
0.41421356237309975
10
4.474212571529498
20
132.67496798034114
10
-47.725379566340138
20
132.67496798034114
42
-0.052408199572717265
10
-48.14120622780942
20
132.71867347602659
10
-128.33772071184916
20
149.76510938116331
42
0.052408212085561845
10
-128.75354747314702
20
149.80881487684877
0
ENDSEC
0
SECTION
2
OBJECTS
0
DICTIONARY
5
C
100
AcDbDictionary
3
ACAD_GROUP
350
D
3
ACAD_MLINESTYLE
350
17
0
DICTIONARY
5
D
100
AcDbDictionary
0
DICTIONARY
5
1A
330
C
100
AcDbDictionary
0
DICTIONARY
5
17
100
AcDbDictionary
0
ENDSEC
0
EOF
